# xmcd
#
# Track frame offsets:
#  150
#  10789
#  21173
#  33151
#  44892
#  61232
#  72608
#  87582
#  98072
#  108653
#  118179
#  129651
#  140842
#  159056
#  175184
#  190054
#  209224
#  224804
#  241873
#  256509
#  273052
#
# Disc length: 3876 seconds
#
# Revision: 0
# Processed by: cddbd v1.5.1PL2 Copyright (c) Steve Scherf et al.
# Submitted via: Collectorz.com_Music_Collector 6.9
#
DISCID=390f2215
DTITLE=Adam Brand and Friends - Christmas In Australia
DYEAR=2005
DGENRE=
TTITLE0=Santa's Gonna Come On A Surfboard
TTITLE1=My Birthday Comes On Christmas
TTITLE2=Aussie Jingle Bells
TTITLE3=Get Your Gear Off
TTITLE4=Funny Little Fat Guy
TTITLE5=My Mum And Santa
TTITLE6=Christmas Photo
TTITLE7=Nuttin' For Christmas
TTITLE8=Owyagoin' Santa Clause
TTITLE9=All I Want For Christmas (Is My Two Front Teeth)
TTITLE10=Ate Too Much For Christmas
TTITLE11=Here Comes Santa Clause
TTITLE12=One Candle
TTITLE13=Uncle Pete
TTITLE14=Last Man Standing
TTITLE15=Old HAnds
TTITLE16=That Was Us
TTITLE17=Good Things In Life
TTITLE18=Built For Speed
TTITLE19=New England Highway
TTITLE20=Dirt Track Cowboys
EXTD=
EXTT0=
EXTT1=
EXTT2=
EXTT3=
EXTT4=
EXTT5=
EXTT6=
EXTT7=
EXTT8=
EXTT9=
EXTT10=
EXTT11=
EXTT12=
EXTT13=
EXTT14=
EXTT15=
EXTT16=
EXTT17=
EXTT18=
EXTT19=
EXTT20=
PLAYORDER=
